#!OML:ASF E:\Steps\Project 1\Capture day 1\Session 2\Subject.ASF
:FULLY-SPECIFIED
:DEGREES
51
root 9.26351 16.3114 20.0194 -152.091 -2.76814 -179.756
lowerback -31.0611 -1.15231 -4.8072
upperback -3.80377 -1.0755 -0.154573
thorax 11.9851 -1.20759 1.91114
lowerneck 0.0961081 -1.58263 0.20718
upperneck 3.74757 -2.16155 -0.329498
head 1.12325 -1.10537 -0.155924
rclavicle 6.60959e-015 -1.59028e-015
rhumerus -33.0812 -18.4303 -82.0602
rradius 26.7858
rwrist 3.00671
rhand -8.29148 -51.0433
rfingers 7.12502
rthumb 17.6284 -80.2642
lclavicle 6.60959e-015 -1.59028e-015
lhumerus -29.1701 3.76583 84.31
lradius 20.3541
lwrist -6.93868
lhand -20.3326 -13.0193
lfingers 7.12502
lthumb 6.01874 16.8753
rfemur -23.9533 7.72161 18.1898
rtibia 6.18513
rfoot -18.8696 -8.69462
rtoes -27.0898
lfemur -25.0542 -9.89095 -16.0407
ltibia 7.70001
lfoot -7.92881 5.08941
ltoes -40.0334
52
root 9.26304 16.3119 20.019 -152.104 -2.72665 -179.77
lowerback -31.0853 -1.14922 -4.81971
upperback -3.79601 -1.06526 -0.160193
thorax 12.0033 -1.2039 1.91509
lowerneck 0.109119 -1.61153 0.296574
upperneck 3.66971 -2.19387 -0.496455
head 1.09383 -1.12168 -0.221237
rclavicle 1.14301e-015 3.97569e-015
rhumerus -32.9994 -18.4246 -82.1093
rradius 26.8162
rwrist 3.05399
rhand -8.2106 -51.1217
rfingers 7.12502
rthumb 17.7062 -80.3355
lclavicle 1.14301e-015 3.97569e-015
lhumerus -29.1134 3.64849 84.4004
lradius 20.5145
lwrist -7.02458
lhand -19.1382 -12.4709
lfingers 7.12502
lthumb 7.17172 17.3876
rfemur -23.9376 7.81669 18.1432
rtibia 6.1751
rfoot -18.9736 -8.68375
rtoes -26.6007
lfemur -25.0275 -9.81343 -16.0894
ltibia 7.69618
lfoot -8.01619 5.02476
ltoes -39.8608
53
root 9.26246 16.3116 20.0204 -152.094 -2.70211 -179.777
lowerback -31.0621 -1.1438 -4.82298
upperback -3.80043 -1.05734 -0.170649
thorax 11.9876 -1.20005 1.90924
lowerneck 0.073529 -1.64117 0.429723
upperneck 3.6002 -2.22689 -0.678646
head 1.07469 -1.13775 -0.298971
rclavicle -5.76476e-015 -1.23246e-014
rhumerus -32.8962 -18.5638 -82.1255
rradius 26.776
rwrist 3.31034
rhand -8.12458 -51.0687
rfingers 7.12502
rthumb 17.789 -80.2751
lclavicle -5.76476e-015 -1.23246e-014
lhumerus -28.999 3.68389 84.4075
lradius 20.6336
lwrist -7.39136
lhand -19.275 -12.4858
lfingers 7.12502
lthumb 7.03966 17.3771
rfemur -23.9715 7.90489 18.1005
rtibia 6.20349
rfoot -18.9902 -8.73304
rtoes -26.0518
lfemur -25.0361 -9.75328 -16.1123
ltibia 7.68094
lfoot -7.95334 4.99999
ltoes -40.179
54
root 9.26246 16.3117 20.0216 -152.098 -2.72802 -179.734
lowerback -31.0602 -1.1427 -4.78761
upperback -3.82088 -1.07533 -0.14478
thorax 11.9656 -1.20785 1.91112
lowerneck 0.123646 -1.65867 0.523258
upperneck 3.51067 -2.24481 -0.850241
head 1.03543 -1.14699 -0.36569
rclavicle 4.22417e-015 -9.14409e-015
rhumerus -32.9095 -18.4085 -82.1972
rradius 26.9187
rwrist 3.23386
rhand -8.17575 -51.1401
rfingers 7.12502
rthumb 17.7397 -80.3509
lclavicle 4.22417e-015 -9.14409e-015
lhumerus -28.9568 3.87392 84.3948
lradius 20.6506
lwrist -7.84814
lhand -20.7342 -13.477
lfingers 7.12502
lthumb 5.63094 16.4282
rfemur -23.9697 7.93261 18.1519
rtibia 6.19796
rfoot -18.8787 -8.77798
rtoes -25.9096
lfemur -25.0564 -9.71474 -16.0556
ltibia 7.69122
lfoot -7.81212 4.99295
ltoes -40.5293
55
root 9.26206 16.3113 20.0201 -152.117 -2.75095 -179.691
lowerback -31.1112 -1.14302 -4.74281
upperback -3.79241 -1.08546 -0.127137
thorax 12.0207 -1.21038 1.90086
lowerneck 0.109659 -1.67533 0.621201
upperneck 3.42502 -2.26129 -1.01824
head 1.00831 -1.15508 -0.432793
rclavicle 4.52235e-015 -2.10712e-014
rhumerus -32.8478 -18.2177 -82.315
rradius 27.0355
rwrist 3.04221
rhand -8.22258 -51.0319
rfingers 7.12502
rthumb 17.6947 -80.2467
lclavicle 4.52235e-015 -2.10712e-014
lhumerus -28.8918 3.66254 84.5444
lradius 20.6399
lwrist -7.32001
lhand -21.3262 -13.4968
lfingers 7.12502
lthumb 5.05938 16.4228
rfemur -23.9321 7.91241 18.2261
rtibia 6.176
rfoot -18.7832 -8.84065
rtoes -26.5961
lfemur -25.0281 -9.78977 -15.9858
ltibia 7.67364
lfoot -7.72404 5.04571
ltoes -40.3394
56
root 9.26023 16.3106 20.0183 -152.132 -2.73545 -179.656
lowerback -31.1638 -1.13015 -4.68274
upperback -3.74764 -1.07825 -0.125764
thorax 12.0934 -1.20343 1.87156
lowerneck 0.054098 -1.69956 0.748639
upperneck 3.34763 -2.28798 -1.19171
head 0.990389 -1.16791 -0.507174
rclavicle 6.75868e-015 -8.74653e-015
rhumerus -32.6798 -18.1418 -82.4126
rradius 26.9916
rwrist 3.00311
rhand -8.25004 -50.7897
rfingers 7.12502
rthumb 17.6682 -80.007
lclavicle 6.75868e-015 -8.74653e-015
lhumerus -28.7911 3.38253 84.6953
lradius 20.6673
lwrist -6.67429
lhand -21.3997 -13.223
lfingers 7.12502
lthumb 4.98845 16.6983
rfemur -23.9219 7.84214 18.2893
rtibia 6.18979
rfoot -18.8532 -8.79508
rtoes -27.2746
lfemur -24.9755 -9.88706 -15.9355
ltibia 7.62675
lfoot -7.68308 5.13386
ltoes -39.9347
57
root 9.25922 16.3106 20.0186 -152.14 -2.71097 -179.651
lowerback -31.178 -1.10075 -4.66842
upperback -3.77603 -1.05096 -0.13477
thorax 12.0651 -1.19233 1.86423
lowerneck 0.144011 -1.73385 0.852784
upperneck 3.2628 -2.32996 -1.35808
head 0.945746 -1.18914 -0.573852
rclavicle 2.03754e-015 -7.95139e-015
rhumerus -32.6636 -18.1708 -82.3776
rradius 26.8962
rwrist 3.03826
rhand -8.28678 -50.449
rfingers 7.12502
rthumb 17.6329 -79.6694
lclavicle 2.03754e-015 -7.95139e-015
lhumerus -28.7909 3.33965 84.7321
lradius 20.6739
lwrist -6.60344
lhand -21.6368 -13.4965
lfingers 7.12502
lthumb 4.75944 16.43
rfemur -23.9362 7.85597 18.2729
rtibia 6.22794
rfoot -18.955 -8.72286
rtoes -27.0076
lfemur -24.9556 -9.85286 -15.9532
ltibia 7.61458
lfoot -7.65521 5.1412
ltoes -40.3362
58
root 9.25914 16.3105 20.019 -152.133 -2.71326 -179.659
lowerback -31.197 -1.0961 -4.67962
upperback -3.78243 -1.04339 -0.127735
thorax 12.0655 -1.19028 1.88022
lowerneck 0.181805 -1.76877 0.928048
upperneck 3.19086 -2.37275 -1.51598
head 0.91424 -1.21095 -0.633949
rclavicle 1.02871e-014 -1.11319e-014
rhumerus -32.5865 -18.2146 -82.3343
rradius 26.8059
rwrist 3.09605
rhand -8.1745 -50.0191
rfingers 7.12502
rthumb 17.7409 -79.2298
lclavicle 1.02871e-014 -1.11319e-014
lhumerus -28.6775 3.40198 84.761
lradius 20.5997
lwrist -6.6696
lhand -21.9156 -13.9954
lfingers 7.12502
lthumb 4.49027 15.937
rfemur -23.9433 7.92547 18.2324
rtibia 6.2279
rfoot -18.953 -8.76261
rtoes -26.5405
lfemur -24.9716 -9.75587 -15.9884
ltibia 7.62412
lfoot -7.68568 5.00442
ltoes -40.7319
59
root 9.25833 16.3096 20.0196 -152.075 -2.71461 -179.593
lowerback -31.2663 -1.06595 -4.60684
upperback -3.79453 -1.03315 -0.115899
thorax 12.0807 -1.18516 1.85593
lowerneck 0.183699 -1.80054 1.04764
upperneck 3.11569 -2.41107 -1.68784
head 0.887215 -1.22997 -0.7062
rclavicle 2.33572e-015 -3.97569e-016
rhumerus -32.5266 -18.1535 -82.3734
rradius 26.8231
rwrist 3.12671
rhand -8.09738 -50.1748
rfingers 7.12502
rthumb 17.8151 -79.3787
lclavicle 2.33572e-015 -3.97569e-016
lhumerus -28.555 3.57545 84.6967
lradius 20.6115
lwrist -7.1218
lhand -21.696 -13.9174
lfingers 7.12502
lthumb 4.70228 16.0104
rfemur -24.0249 7.93064 18.3002
rtibia 6.24666
rfoot -18.9353 -8.78113
rtoes -26.6507
lfemur -25.0537 -9.72234 -15.8997
ltibia 7.64628
lfoot -7.75775 4.95781
ltoes -40.2399
60
root 9.25576 16.3055 20.023 -151.882 -2.63588 -179.502
lowerback -31.4502 -0.98229 -4.4879
upperback -3.84363 -0.977812 -0.12242
thorax 12.0986 -1.1633 1.8014
lowerneck 0.182728 -1.84112 1.19304
upperneck 3.04303 -2.46144 -1.86452
head 0.860887 -1.25478 -0.784537
rclavicle 9.14409e-015 1.63003e-014
rhumerus -32.493 -18.0014 -82.4745
rradius 26.9212
rwrist 2.97866
rhand -8.2553 -50.7097
rfingers 7.12502
rthumb 17.6632 -79.9274
lclavicle 9.14409e-015 1.63003e-014
lhumerus -28.4809 3.87315 84.5283
lradius 20.7036
lwrist -7.90566
lhand -20.606 -12.2835
lfingers 7.12502
lthumb 5.75473 17.6184
rfemur -24.3481 7.84883 18.3733
rtibia 6.38791
rfoot -18.9381 -8.61884
rtoes -26.812
lfemur -25.3009 -9.69015 -15.777
ltibia 7.69365
lfoot -7.79978 5.054
ltoes -39.5575
61
root 9.25444 16.3065 20.0187 -151.993 -2.67493 -179.532
lowerback -31.3949 -1.01019 -4.49456
upperback -3.80451 -1.00147 -0.121412
thorax 12.1215 -1.1702 1.79851
lowerneck 0.183862 -1.86916 1.31458
upperneck 2.97009 -2.49541 -2.03961
head 0.834546 -1.27173 -0.858464
rclavicle -3.97569e-016 1.27222e-014
rhumerus -32.4325 -17.6267 -82.6861
rradius 27.0827
rwrist 2.47926
rhand -8.52919 -50.6917
rfingers 7.12502
rthumb 17.3996 -79.933
lclavicle -3.97569e-016 1.27222e-014
lhumerus -28.4512 4.04932 84.4494
lradius 20.7642
lwrist -8.27714
lhand -20.3955 -12.1772
lfingers 7.12502
lthumb 5.95799 17.719
rfemur -24.1456 7.85293 18.359
rtibia 6.29614
rfoot -18.8642 -8.62381
rtoes -26.777
lfemur -25.1227 -9.72433 -15.8373
ltibia 7.62383
lfoot -7.79431 5.02299
ltoes -39.3195
